<svg xmlns="http://www.w3.org/2000/svg" viewBox="0 0 800 600" width="800" height="600">
<defs>
  <pattern id="grid" width="25" height="25" patternUnits="userSpaceOnUse">
    <path d="M25 0 L0 0 0 25" fill="none" stroke="#8FB0C4" stroke-width="0.6" opacity="0.5"/>
  </pattern>
  <pattern id="grid5" width="125" height="125" patternUnits="userSpaceOnUse">
    <path d="M125 0 L0 0 0 125" fill="none" stroke="#8FB0C4" stroke-width="1.1" opacity="0.65"/>
  </pattern>
</defs>
<rect width="800" height="600" fill="#E8DFC9"/>
<rect width="800" height="600" fill="url(#grid)"/>
<rect width="800" height="600" fill="url(#grid5)"/>
<g fill="none" stroke="#2E5C7A" stroke-width="2.4" stroke-linejoin="round" stroke-linecap="round">

<line x1="40" y1="470" x2="760" y2="470" stroke-width="3"/>
<!-- main block -->
<rect x="200" y="235" width="250" height="235"/>
<!-- lower wing -->
<rect x="450" y="320" width="180" height="150"/>
<line x1="188" y1="235" x2="462" y2="235" stroke-width="3"/>
<line x1="438" y1="320" x2="642" y2="320" stroke-width="3"/>
<!-- glazing grid, main -->
<rect x="228" y="268" width="88" height="76" stroke-width="1.8"/>
<line x1="272" y1="268" x2="272" y2="344" stroke-width="1.1"/>
<rect x="340" y="268" width="88" height="76" stroke-width="1.8"/>
<line x1="384" y1="268" x2="384" y2="344" stroke-width="1.1"/>
<!-- full height glazing ground floor -->
<rect x="228" y="378" width="200" height="92" stroke-width="1.8"/>
<line x1="294" y1="378" x2="294" y2="470" stroke-width="1.1"/>
<line x1="361" y1="378" x2="361" y2="470" stroke-width="1.1"/>
<!-- wing glazing -->
<rect x="478" y="356" width="124" height="80" stroke-width="1.8"/>
<line x1="540" y1="356" x2="540" y2="436" stroke-width="1.1"/>
<!-- pool -->
<rect x="150" y="500" width="290" height="62" rx="4" stroke-width="2.2"/>
<path d="M170 522 q22 -10 44 0 t44 0 t44 0 t44 0" stroke-width="1.5" opacity="0.8"/>
<path d="M170 542 q22 -10 44 0 t44 0 t44 0 t44 0" stroke-width="1.5" opacity="0.8"/>
<line x1="700" y1="470" x2="700" y2="407.0" stroke-width="2"/>
<circle cx="700" cy="388.64" r="30.6" stroke-width="1.8"/>
<circle cx="683.17" cy="402.41" r="18.36" stroke-width="1.6"/>
<circle cx="716.83" cy="400.88" r="16.830000000000002" stroke-width="1.6"/>
<g stroke="#C9A24B" stroke-width="1.4">
  <line x1="200" y1="487" x2="630" y2="487"/>
  <line x1="200" y1="481" x2="200" y2="493"/>
  <line x1="630" y1="481" x2="630" y2="493"/>
</g>
<text x="415.0" y="507" font-family="monospace" font-size="15" fill="#C9A24B"
      text-anchor="middle" stroke="none">21.5 m</text>
<g stroke="#C9A24B" stroke-width="1.4">
  <line x1="170" y1="235" x2="170" y2="470"/>
  <line x1="164" y1="235" x2="176" y2="235"/>
  <line x1="164" y1="470" x2="176" y2="470"/>
</g>
<text x="160" y="352.5" font-family="monospace" font-size="15" fill="#C9A24B"
      text-anchor="end" dominant-baseline="middle" stroke="none">9.8 m</text>
<text x="466" y="530" font-family="monospace" font-size="14" fill="#C9A24B" stroke="none">POOL</text>

</g>
</svg>